<?xml version="1.0" encoding="iso-8859-1"?>
<!-- Generator: Adobe Illustrator 19.0.0, SVG Export Plug-In . SVG Version: 6.00 Build 0)  -->
<svg version="1.1" id="Capa_1" xmlns="http://www.w3.org/2000/svg" xmlns:xlink="http://www.w3.org/1999/xlink" x="0px" y="0px"
	 viewBox="0 0 512 512" style="enable-background:new 0 0 512 512;" xml:space="preserve">
<g>
	<g>
		<path d="M467.206,318.15c-37.414-14.117-84.284-18.902-123.075-14.638c-29.206,3.241-51.824,9.533-61.222,12.446V140.484
			c0-7.631,2.079-12.563,4.14-14.067c0.392-0.286,1.21-0.882,3.367-0.19c0.095,0.031,0.188,0.059,0.284,0.086
			c5.834,1.623,11.235,5.816,11.235,25.339v127.72c0,2.93,1.676,5.601,4.316,6.875c26.986,13.024,52.56,14.084,72.011,2.985
			c19.935-11.374,31.863-33.879,34.495-65.081c0.354-4.201-2.764-7.894-6.966-8.249c-4.182-0.359-7.894,2.763-8.248,6.965
			c-2.189,25.968-11.474,44.331-26.846,53.103c-13.985,7.98-32.847,7.417-53.493-1.5V151.649c0-9.229-0.001-33.712-22.273-40.009
			c-6.105-1.913-12.096-1.048-16.88,2.442c-6.712,4.898-10.408,14.273-10.408,26.401v309.411l-71.024-22.54
			c0-4.996,0-359.201,0-366.441c4.43,0.929,9.171,1.991,14.18,3.176c4.096,0.974,8.215-1.567,9.186-5.67
			c0.97-4.103-1.569-8.216-5.671-9.186c-8.839-2.092-16.893-3.814-23.94-5.118c-2.23-0.412-4.528,0.187-6.271,1.637
			c-1.744,1.45-2.752,3.601-2.752,5.869v225.12l-28.555,10.152C47.238,324.419-5.742,337.109,0.493,371.032
			c2.829,15.382,19.126,28.355,44.726,35.608c42.877,14.102,89.25,18.554,136.131,10.993v15.306c0,3.326,2.154,6.27,5.324,7.276
			l86.291,27.385c4.191,1.329-3.31,2.885,156.776-54.626c23.845-8.565,60.542-18.717,75.865-38.02
			C517.833,359.524,516.254,333.732,467.206,318.15z M181.348,402.154c-44.866,7.477-88.962,3.953-131.508-10.065
			c-0.105-0.035-0.211-0.067-0.318-0.097c-23.058-6.503-32.689-16.517-34.014-23.721c-1.089-5.928,3.089-10.443,6.78-13.183
			c6.866-5.086,15.883-9.702,24.073-13.362l49.563,15.73c-14.265,5.522-17.229,12.567-17.152,17.581
			c0.214,14.013,21.255,17,35.27,17c22.573,0,34.425-5.428,52.746-12.092l14.559,4.62V402.154z M181.35,358.404
			c-0.136,0.05-17.34,6.307-17.34,6.307c-19.546,7.109-29.793,12.059-49.966,12.059c-5.516,0-12.894-0.533-18.025-2.468
			c3.516-2.188,0.127-0.735,85.33-31.21V358.404z M181.35,326.876l-61.733,22.08L68.991,332.89
			c12.475-4.435,91.398-32.494,103.155-36.674l9.204,2.921V326.876z M282.993,331.989c0.039-0.013,0.905-0.308,0.905-0.308
			l53.138,16.864l-54.043,19.044V331.989z M282.91,383.806l80.707-28.44l6.805-2.398c14.285-5.105,35.707-6.218,46.732-2.585
			c0.36,0.117,0.687,0.232,0.982,0.345c-1.392,0.866-3.501,1.931-6.554,3.023c-5.303,1.887-117.014,41.674-128.673,45.827V383.806z
			 M282.993,449.47v-32.648l48.253,15.313L282.993,449.47z M384.573,412.978l-29.653,10.653l-49.729-15.782
			c21.801-7.764,81.216-28.926,103.057-36.704l49.259,15.632L384.573,412.978z M493.644,365.466
			c-3.462,4.36-9.367,8.494-15.327,11.898l-49.328-15.654c12.193-9.756,9.273-28.724-28.759-28.724
			c-15.967,0-26.909,2.773-39.279,7.131l-49.647-15.755c9.69-2.111,21.427-4.222,34.504-5.673
			c38.412-4.223,83.123,1.298,116.191,13.816c0.132,0.05,0.266,0.097,0.4,0.139C480.486,338.365,505.373,350.66,493.644,365.466z"/>
	</g>
</g>
<g>
	<g>
		<path d="M412.226,187.137c-5.569-56.773-33.189-86.629-101.938-110.169c-17.426-5.887-39.877-12.768-60.053-18.406
			c-4.067-1.139-8.272,1.238-9.407,5.298c-1.134,4.061,1.238,8.272,5.298,9.407c19.932,5.57,42.091,12.361,59.246,18.155
			c62.743,21.482,86.728,46.92,91.661,97.206c0.387,3.942,3.708,6.889,7.588,6.889c0.249,0,0.501-0.012,0.754-0.037
			C409.571,195.068,412.638,191.334,412.226,187.137z"/>
	</g>
</g>
<g>
</g>
<g>
</g>
<g>
</g>
<g>
</g>
<g>
</g>
<g>
</g>
<g>
</g>
<g>
</g>
<g>
</g>
<g>
</g>
<g>
</g>
<g>
</g>
<g>
</g>
<g>
</g>
<g>
</g>
</svg>
